<svg width="237" height="371" viewBox="0 0 237 371" fill="none" xmlns="http://www.w3.org/2000/svg">
<path d="M169.126 56.8751C153.996 48.9828 108.953 53.8978 108.504 53.9748L108.324 52.3836C108.44 52.3836 119.874 51.1003 133.111 50.8308C150.929 50.4779 163.3 52.0307 169.871 55.4506L169.126 56.8751Z" fill="#FFBE4D"/>
<path d="M87.0917 184.967C76.8253 184.967 67.5728 184.601 60.1875 183.42L60.4442 181.835C73.4695 183.921 92.5264 183.433 112.7 182.907C131.025 182.432 149.966 181.945 167.823 183.132L167.721 184.736C149.934 183.549 131.032 184.036 112.745 184.511C103.839 184.742 95.1507 184.967 87.0917 184.967Z" fill="#FFBE4D"/>
<path d="M127.046 17.119L126.128 15.8036C132.019 11.6586 134.868 8.05894 134.149 5.66561C133.507 3.56743 129.991 2.17506 124.223 1.75157L124.338 0.147461C131.011 0.641528 134.829 2.34189 135.689 5.20362C136.671 8.39902 133.738 12.4093 127.046 17.119Z" fill="#FFBE4D"/>
<path d="M4.52906 43.2594L2.95703 42.9899C3.32277 41.0329 4.88197 38.8 7.63462 36.3682L8.69975 37.568C6.27434 39.6983 4.83063 41.7066 4.52906 43.2594Z" fill="#FFBE4D"/>
<path d="M13.8018 49.7529L6.9041 56.6699L0 46.9297L0.648061 38.5562L8.02698 36.3169L8.17456 36.9457L9.07286 40.8212L9.37443 45.7298L13.2243 49.2268L13.8018 49.7529Z" fill="#FD8033"/>
<path d="M135.713 131.548L131.168 138.015L131.693 138.384L136.238 131.917L135.713 131.548Z" fill="#00D3E2"/>
<path d="M135.98 131.736L139.406 167.783L74.1314 161.867L76.3579 117.177L6.90625 56.6697L14.221 49.3357H14.2723L101.029 88.7135C100.31 89.8425 99.4471 90.8734 98.4626 91.7805C101.78 97.2794 108.126 100.366 117.539 95.7459V92.4607L126.656 93.4745L136.281 83.4648L145.777 73.5963L133.054 27.1284L146.939 19.8906L173.394 80.2053L135.98 131.736Z" fill="#FB3552"/>
<path d="M14.2712 49.342H14.2199C14.0081 49.342 13.79 49.342 14.2199 49.342C14.5792 49.3485 14.4509 49.3485 14.2712 49.342Z" fill="#FB3552"/>
<path d="M186.398 329.298H65.9102L74.1296 161.867L139.404 167.777L186.398 329.298Z" fill="#FD8033"/>
<path d="M125.435 329.298L96.7539 204.152L105.827 329.298H125.435Z" fill="#403C70"/>
<path d="M181.523 336.408V370.639H167.708L160.804 353.527L153.894 370.639H117.75L122.004 365.096L130.878 353.527L130.621 336.408H181.523Z" fill="#403C70"/>
<path d="M122.005 336.408V365.096L117.751 370.639H108.197L101.286 353.527L94.3821 370.639H58.2383L71.3599 353.527L71.1033 336.408H122.005Z" fill="#403C70"/>
<path d="M136.319 83.4713L126.695 93.481L117.577 92.4672V84.6968C115.531 83.6527 113.729 82.1876 112.29 80.3978C121.125 77.7799 125.617 69.6374 126.592 63.3621C120.817 60.3785 115.44 52.8841 119.29 46.7179C100.785 43.5096 103.294 61.3089 95.1835 64.8058C98.5457 67.674 96.5373 76.3554 104.699 80.0642C104.567 80.8113 104.384 81.5487 104.154 82.2714C103.542 84.1492 102.722 85.9528 101.709 87.6484C87.92 82.2522 80.6759 73.7375 79.4375 61.7324C92.033 56.503 94.0798 53.391 94.0798 53.391C94.067 32.6145 153.387 22.4573 136.319 83.4713Z" fill="#403C70"/>
<path d="M112.286 80.398C113.723 82.1948 115.525 83.6665 117.573 84.7162V95.7525C108.16 100.372 101.814 97.2861 98.497 91.7872C99.4815 90.8801 100.344 89.8491 101.064 88.7201C101.288 88.3736 101.513 88.0207 101.705 87.6486C102.718 85.9529 103.538 84.1494 104.15 82.2716C104.381 81.5488 104.563 80.8114 104.695 80.0643C96.5336 76.3299 98.5419 67.6742 95.1797 64.806C103.29 61.309 100.781 43.4906 119.286 46.718C115.436 52.8842 120.801 60.3787 126.588 63.3623C125.6 69.6376 121.109 77.7801 112.286 80.398Z" fill="#FD8033"/>
<path d="M8.02734 36.3168L9.07323 36.1692C8.80373 36.3938 8.54708 36.6119 8.29683 36.8108C8.25171 36.8418 8.21074 36.8785 8.17492 36.9199L8.02734 36.3168Z" fill="#FD8033"/>
<path d="M14.23 49.3231L13.8001 49.753L13.2227 49.2268C13.5499 49.2653 13.8836 49.2974 14.23 49.3231Z" fill="#FD8033"/>
<path d="M8.69794 37.5359L7.63281 36.3361C16.9687 28.0396 39.4263 17.7284 64.8355 10.0928C88.4608 2.98977 111.265 -0.81519 124.335 0.147278L124.22 1.75139C111.323 0.788923 88.7496 4.58105 65.2974 11.6327C40.0936 19.2106 17.8735 29.3806 8.69794 37.5359Z" fill="#FFBE4D"/>
<path d="M18.6966 50.2659C10.0151 50.2659 4.13126 48.7003 3.04688 45.0879L4.58041 44.6259C6.54384 51.1514 34.6736 50.3108 73.4289 38.6586C92.0366 33.057 109.31 25.9733 120.776 19.2231L121.591 20.6091C110.041 27.417 92.6334 34.5585 73.8909 40.1921C53.801 46.2364 32.6395 50.2659 18.6966 50.2659Z" fill="#FFBE4D"/>
<path d="M146.908 19.9163L133.049 27.1284L130.142 21.2445L125.028 18.3892L127.203 17.0353L126.581 16.4578L123.828 17.3625L124.277 10.4328L132.76 7.14111L134.845 7.72501L146.908 19.9163Z" fill="#FD8033"/>
<path d="M121.592 20.6094L120.777 19.2491C122.747 18.0877 124.55 16.9391 126.129 15.8291L127.046 17.1188C125.436 18.2481 123.601 19.4223 121.592 20.6094Z" fill="#FFBE4D"/>
<path d="M60.1869 183.42C47.2513 181.341 40.9375 176.779 40.9375 169.465C40.9375 146.064 77.2674 128.066 112.41 110.664C144.377 94.8284 174.573 79.8653 173.797 62.7462C173.687 60.3849 172.154 58.4664 169.1 56.8751L169.844 55.4507C173.392 57.305 175.266 59.7369 175.394 62.6756C176.222 80.847 145.571 96.0411 113.155 112.082C78.4545 129.266 42.5737 147.039 42.5737 169.445C42.5737 175.926 48.2523 179.859 60.4499 181.816L60.1869 183.42Z" fill="#FFBE4D"/>
<path d="M27.6217 352.385C23.605 347.252 22.3345 342.247 23.8488 337.511C29.2194 320.713 67.9427 309.279 112.781 296.061C173.025 278.288 241.302 258.146 234.135 220.482C230.016 198.833 208.912 187.476 167.718 184.736L167.821 183.132C194.276 184.89 230.093 190.652 235.714 220.187C243.15 259.276 174.116 279.635 113.236 297.601C70.6825 310.152 30.4642 321.984 25.3759 338.025C24.0092 342.285 25.1578 346.668 28.8857 351.416L27.6217 352.385Z" fill="#FFBE4D"/>
<path d="M159.672 105.381L138.949 112.716L146.284 133.439L167.007 126.105L159.672 105.381Z" fill="#FFBE4D"/>
<path d="M183.968 205.823L175.684 204.189L174.049 212.473L182.334 214.107L183.968 205.823Z" fill="#FB3552"/>
<path d="M179.018 37.8247H171.793V45.0496H179.018V37.8247Z" fill="#FD8033"/>
<path d="M41.6306 198.811L32.9102 200.771L34.8706 209.492L43.5911 207.532L41.6306 198.811Z" fill="#FFBE4D"/>
<path d="M33.4409 105.988L17.7031 102.884L14.5984 118.621L30.3362 121.726L33.4409 105.988Z" fill="#FD8033"/>
</svg>
