<svg width="220" height="355" viewBox="0 0 220 355" fill="none" xmlns="http://www.w3.org/2000/svg">
<path d="M45.4943 199.335L44.9102 197.799C51.9621 195.15 59.1772 192.958 66.5108 191.235C90.3036 185.558 132.645 171.971 148.85 144.812L150.262 145.652C138.021 166.163 108.412 182.919 66.9046 192.837C59.6349 194.538 52.4831 196.708 45.4943 199.335Z" fill="#FFBE4D"/>
<path d="M62.5433 40.7657C64.6965 40.7657 66.442 39.0202 66.442 36.867C66.442 34.7138 64.6965 32.9683 62.5433 32.9683C60.3901 32.9683 58.6445 34.7138 58.6445 36.867C58.6445 39.0202 60.3901 40.7657 62.5433 40.7657Z" fill="#403C70"/>
<path d="M67.1528 45.1963C59.8082 47.2901 58.6202 39.2892 63.3919 36.9854C64.7178 40.2015 65.9583 42.9122 67.1528 45.1963Z" fill="#FD8033"/>
<path d="M149.555 203.548L128.486 241.505H99.6069L128.486 241.433L114.086 227.033H136.52V177.635H114.02C116.357 177.635 118.641 176.942 120.584 175.644C122.527 174.346 124.041 172.501 124.935 170.342C125.83 168.183 126.064 165.808 125.608 163.516C125.152 161.224 124.027 159.119 122.374 157.467C120.722 155.815 118.617 154.689 116.325 154.234C114.034 153.778 111.658 154.012 109.499 154.906C107.34 155.8 105.495 157.314 104.197 159.257C102.899 161.2 102.206 163.484 102.206 165.821C102.206 168.954 103.451 171.959 105.666 174.175C107.882 176.391 110.887 177.635 114.02 177.635H87.1099V227.033H114.079L99.6397 241.505H67.8197V272.702H92.4264V321.961H52.1328L54.3513 149.662H116.79L95.9772 154.978L96.7583 158.043L127.102 150.292L126.944 149.635H137.242L149.555 203.548Z" fill="#FD8033"/>
<path d="M78.659 75.1455L69.1484 149.661H54.3477L54.4724 141.129C56.6674 141.622 58.9109 141.866 61.1606 141.857C64.1733 129.058 74.944 89.0405 78.6721 75.1323L78.659 75.1455Z" fill="#403C70"/>
<path d="M54.5253 135.747L54.4531 141.142" stroke="#00D3E2" stroke-miterlimit="10"/>
<path d="M92.4273 327.31V354.752H48.3203L57.4699 343.148V327.31H92.4273Z" fill="#403C70"/>
<path d="M195.04 272.702H92.4258V354.752H195.04V272.702Z" fill="#FB3552"/>
<path d="M219.648 241.505H67.8203V272.702H219.648V241.505Z" fill="#403C70"/>
<path d="M197.09 241.197L128.488 241.505L149.557 203.548L162.875 179.559L197.09 241.197Z" fill="#FFBE4D"/>
<path d="M72.8971 55.7241L71.755 59.997L67.2131 67.5188L50.8633 94.6065L62.1198 61.2441C63.485 60.3645 64.8961 59.531 66.3664 58.7499C68.4821 57.6142 70.6628 56.6039 72.8971 55.7241Z" fill="#FB3552"/>
<path d="M80.9918 76.4322C77.244 90.3403 64.1563 129.072 61.1437 141.871C58.9 141.874 56.6632 141.625 54.4751 141.129C25.4839 134.434 27.5646 83.488 62.1216 61.2441L50.8651 94.6066L65.1474 65.9371L80.9918 76.4322Z" fill="#FB3552"/>
<path d="M113.579 128.875C112.828 128.874 112.093 128.65 111.469 128.231C110.845 127.813 110.359 127.219 110.073 126.524C109.786 125.83 109.712 125.066 109.859 124.329C110.006 123.592 110.369 122.916 110.901 122.385C111.432 121.854 112.109 121.493 112.846 121.347C113.583 121.201 114.347 121.276 115.041 121.564C115.735 121.852 116.328 122.339 116.746 122.964C117.163 123.589 117.386 124.323 117.386 125.075C117.386 125.574 117.287 126.069 117.096 126.53C116.904 126.992 116.624 127.411 116.27 127.764C115.917 128.117 115.497 128.397 115.035 128.588C114.573 128.778 114.078 128.876 113.579 128.875ZM135.383 95.4009L130.788 98.2429L137.555 99.5556L135.383 95.4009Z" fill="#FB3552"/>
<path d="M135.063 140.124L137.242 149.661H126.944L126.321 147.226L116.791 149.661H69.1523L78.6629 75.1651C79.4768 72.1328 79.9756 70.3409 79.9756 70.3409L81.7609 65.241L82.4173 63.272L82.5288 63.1013C91.3174 61.8805 91.6128 56.5378 91.4487 52.9541C134.112 55.5795 159.421 99.0039 159.421 128.468L131.565 124.864L126.445 102.483L137.525 99.5487L135.372 95.4071L130.777 98.2491L121.995 103.664L122.429 106.191L112.806 110.936L107.798 121.661L117.572 117.677L119.455 125.074L120.932 123.046L121.588 122.127L127.922 130.588L135.063 140.124Z" fill="#FB3552"/>
<path d="M121.988 103.651L126.458 102.47L137.537 99.5356L135.384 95.394L121.988 103.651Z" fill="#FB3552"/>
<path d="M135.061 140.125L127.92 130.588L121.586 122.127L124.467 118.163L125.478 124.064L131.576 124.851L133.184 131.907L134.503 137.676L135.061 140.125Z" fill="#403C70"/>
<path d="M131.578 124.851L125.48 124.064L124.469 118.163L122.421 106.178L121.988 103.651L126.458 102.47L131.578 124.851Z" fill="#FB3552"/>
<path d="M124.468 118.163L121.587 122.127L120.917 123.046L119.441 125.074L117.57 117.684L107.797 121.668L112.805 110.943L122.42 106.178L124.468 118.163Z" fill="#FD8033"/>
<path d="M128.488 241.433L99.6211 241.505L114.087 227.033L128.488 241.433Z" fill="#FB3552"/>
<path d="M136.514 177.635H87.1172V227.032H136.514V177.635Z" fill="#403C70"/>
<path d="M125.828 165.821C125.828 168.158 125.135 170.442 123.837 172.385C122.539 174.328 120.694 175.842 118.535 176.736C116.376 177.63 114 177.864 111.709 177.409C109.417 176.953 107.312 175.828 105.66 174.175C104.007 172.523 102.882 170.418 102.426 168.126C101.97 165.834 102.204 163.459 103.099 161.3C103.993 159.141 105.507 157.296 107.45 155.998C109.393 154.7 111.677 154.007 114.014 154.007C117.147 154.007 120.152 155.252 122.368 157.467C124.583 159.683 125.828 162.688 125.828 165.821Z" fill="#FFBE4D"/>
<path d="M127.101 150.279L96.7576 158.03L95.9766 154.965L116.79 149.648L126.32 147.213L126.943 149.648L127.101 150.279Z" fill="#403C70"/>
<path d="M117.387 125.074C117.388 125.827 117.166 126.564 116.749 127.191C116.331 127.818 115.737 128.307 115.042 128.596C114.346 128.885 113.581 128.961 112.842 128.815C112.103 128.669 111.424 128.307 110.891 127.775C110.358 127.243 109.994 126.565 109.847 125.826C109.7 125.087 109.775 124.321 110.063 123.625C110.351 122.929 110.838 122.335 111.465 121.916C112.091 121.497 112.827 121.274 113.58 121.274C114.589 121.274 115.556 121.674 116.27 122.387C116.984 123.099 117.385 124.066 117.387 125.074Z" fill="#FFBE4D"/>
<path d="M91.6901 49.6528L91.2635 50.3092L90.8369 50.9655L89.5241 52.9346L82.5405 63.0884L82.429 63.259L81.7726 65.2281L79.9873 70.328C79.9873 70.328 79.5016 72.1198 78.6746 75.1522L67.2344 67.5253L71.7763 60.0035L72.9184 55.7307L73.4172 53.8535L74.533 49.6594L76.3117 54.6477L76.8959 56.2886L81.4904 54.2407L91.2307 49.8563L91.6901 49.6528Z" fill="#FD8033"/>
<path d="M81.4443 54.2344L76.8498 56.2822L76.2656 54.6413C78.0025 54.7634 79.7478 54.6262 81.4443 54.2344Z" fill="#403C70"/>
<path d="M91.2851 50.5521L90.8388 50.8868L91.2654 50.2304L91.692 49.5741L91.2326 49.7776L81.466 54.2276C79.7781 54.6169 78.0418 54.754 76.3137 54.6346L74.5349 49.6463L73.3995 53.8338C70.9184 52.659 68.7197 50.1057 66.3962 45.3669C66.2452 45.0649 66.0942 44.7499 65.9433 44.4283C65.3788 43.2118 64.8012 41.8641 64.2105 40.3851C63.8167 39.3875 63.4163 38.3307 63.0028 37.2018L62.9437 37.0377C62.8781 36.8605 62.0774 34.7339 62.0117 34.5502C62.6681 34.1104 63.3966 33.7231 64.1514 33.3096C66.278 32.1282 68.6475 30.7302 70.61 27.3696C77.7117 33.2768 84.5903 24.6458 83.6058 19.8872C85.5354 25.6434 89.0141 26.5755 91.3704 26.4507C91.5936 27.2318 91.8036 27.9932 92.0268 28.7349C92.8144 31.5966 93.4642 34.1629 93.9171 36.4667C95.2298 43.2206 94.8754 47.6838 91.2851 50.5521Z" fill="#FD8033"/>
<path d="M96.8946 32.1283C96.6845 30.028 94.4726 28.3346 92.0047 28.7481C91.8012 28.0064 91.5912 27.2451 91.3484 26.464C88.992 26.5821 85.5134 25.6501 83.5837 19.9005C84.5682 24.659 77.6765 33.277 70.5879 27.3829C67.9625 31.9314 64.5954 33.8349 62.0553 35.5348C51.4946 42.6759 43.8152 25.5714 53.0698 23.6417C47.1626 0.400186 71.0736 -4.4437 78.3394 3.63601C87.2921 -9.09725 113.277 18.3908 96.8946 32.1283Z" fill="#403C70"/>
<path d="M93.8942 36.48C93.4413 34.1762 92.7915 31.6098 92.0039 28.7481C94.4718 28.3346 96.6837 30.028 96.8938 32.1283C97.0381 33.5723 96.2308 35.2066 93.8942 36.48Z" fill="#FD8033"/>
<path d="M82.543 63.0884L89.5069 52.8624L90.8196 50.8933L91.2659 50.5586L91.4431 52.928C91.6269 56.538 91.3315 61.8676 82.543 63.0884Z" fill="#403C70"/>
<path d="M185.638 145.605L174.531 142.834L171.76 153.94L182.866 156.711L185.638 145.605Z" fill="#FD8033"/>
<path d="M22.6855 312.446L10.7852 319.594L17.9328 331.494L29.8331 324.346L22.6855 312.446Z" fill="#FB3552"/>
<path d="M26.4334 172.043L17.0742 166.664L11.6954 176.023L21.0545 181.402L26.4334 172.043Z" fill="#FFBE4D"/>
<path d="M166.021 61.5114L158.012 63.064L159.564 71.0734L167.574 69.5208L166.021 61.5114Z" fill="#FFBE4D"/>
<path d="M150.263 145.638L148.852 144.798C155.98 132.853 156.275 120.297 149.646 111.213C142.925 102.024 130.349 98.2364 116.828 101.367L116.461 99.7658C130.612 96.4971 143.857 100.494 150.959 110.281C158.002 119.876 157.739 133.109 150.263 145.638Z" fill="#FFBE4D"/>
<path d="M134.931 318.187C94.4142 311.683 60.3823 301.05 36.5173 287.45C14.2537 274.756 1.67801 260.166 0.148705 245.24C-0.97366 234.318 3.35171 213.637 44.912 197.799L45.4962 199.335C15.4483 210.782 -0.0744551 227.026 1.77646 245.069C3.25326 259.444 15.5599 273.608 37.3312 286.019C61.0387 299.527 94.8671 310.094 135.207 316.566L134.931 318.187Z" fill="#FFBE4D"/>
</svg>
