<svg width="281" height="344" viewBox="0 0 281 344" fill="none" xmlns="http://www.w3.org/2000/svg">
<g clip-path="url(#clip0)">
<path d="M66.2314 297.095C53.9703 297.095 42.6767 295.852 32.8058 293.378C18.2619 289.737 7.58802 283.628 2.71899 276.161C-0.619778 271.06 -0.891685 265.558 1.94753 260.686C5.64041 254.348 14.158 249.349 26.6089 246.224C40.767 242.666 59.029 241.697 80.8954 243.355L80.7752 244.943C49.3921 242.571 12.5709 245.67 3.345 261.521C0.752404 265.896 1.00534 270.671 4.04058 275.313C16.3776 294.188 58.5168 298.103 92.4546 293.754C121.029 290.063 149.778 287.914 178.58 287.314V288.908C149.835 289.504 121.143 291.649 92.6253 295.335C83.8727 296.48 75.0573 297.067 66.2314 297.095Z" fill="#FFBE4D"/>
<path d="M164.573 246.046L163.308 245.083C163.57 244.732 163.746 244.322 163.82 243.888C163.893 243.455 163.863 243.009 163.732 242.59C161.556 233.975 132.424 216.912 74.6726 190.418C41.1901 175.057 21.3726 159.41 24.1865 150.572C26.0392 144.757 37.1874 143.424 54.7792 146.918C79.2065 151.771 82.9373 146.281 83.5001 144.451C85.1063 139.305 75.912 131.743 66.136 127.394C55.5316 122.688 49.4485 117.421 48.0574 111.74C46.9824 107.321 49.0754 103.82 50.4223 102.124L51.687 103.125C50.5235 104.586 48.7087 107.589 49.6256 111.364C50.8903 116.535 56.6635 121.438 66.8 125.934C79.099 131.392 86.763 139.382 85.0367 144.929C83.9807 148.315 78.6121 153.276 54.5009 148.481C35.107 144.655 26.9182 147.288 25.7167 151.031C23.6237 157.605 38.1612 171.869 75.3556 188.932C134.378 216.013 162.96 232.93 165.294 242.163C165.484 242.821 165.519 243.516 165.393 244.191C165.268 244.866 164.987 245.501 164.573 246.046Z" fill="#FFBE4D"/>
<path d="M183.088 73.4944C179.862 67.9951 176.149 62.8006 171.997 57.9743C164.2 58.7394 157.839 59.1794 152.742 58.7203C140.886 57.6427 135.884 51.7063 135.624 33.6292C130.376 34.6558 122.522 36.014 114.327 30.7024C114.688 33.6228 115.592 36.2308 116.035 38.7622C97.8674 37.2829 100.605 6.74632 117.558 13.1546C117.413 -5.8343 164.858 -7.8875 161.943 31.5569C187.957 29.1912 197.075 59.8234 183.088 73.4944Z" fill="#403C70"/>
<path d="M152.93 64.9592L143.008 92.6738L143.603 92.8903L153.525 65.1757L152.93 64.9592Z" fill="#00D3E2"/>
<path d="M164.435 217.263L154.09 242.756L159.345 166.813L164.435 217.263Z" fill="#403C70"/>
<path d="M174.523 191.558L164.137 217.145L164.722 217.387L175.108 191.799L174.523 191.558Z" fill="#00D3E2"/>
<path d="M146.267 150.99L144.898 153.432L145.449 153.746L146.818 151.303L146.267 150.99Z" fill="#00D3E2"/>
<path d="M191.6 90.5767L164.655 131.609L149.094 155.316L145.179 153.582L77.582 123.651L79.4411 120.782L88.1801 107.276L89.2298 105.657L134.645 116.962L138.736 105.542L143.301 92.7893C142.897 84.6785 142.593 76.3318 142.77 71.913C142.847 70.3078 142.76 68.6989 142.511 67.1116C142.41 66.465 142.266 65.8259 142.081 65.1986C145.967 63.6524 149.576 61.4771 152.767 58.7585C157.864 59.2176 164.226 58.7585 172.022 58.0125C176.166 62.8399 179.87 68.0343 183.088 73.5326C186.323 79.0029 189.167 84.6987 191.6 90.5767Z" fill="#FB3552"/>
<path d="M202.433 128.382L180.516 130.257L191.601 90.5896C196.469 102.523 200.06 114.947 202.312 127.649L202.433 128.382Z" fill="#FB3552"/>
<path d="M159.351 166.813L154.096 242.756L176.614 312.666H122.112L102.668 229.595L145.18 153.582L149.094 155.316L164.656 131.609L180.516 130.257L202.433 128.382C207.099 153.831 213.233 231.208 213.233 231.208L254.519 296.062L208.275 314.834L167.002 242.705L164.41 217.263L159.351 166.813Z" fill="#FD8033"/>
<path d="M143.303 92.7831L138.737 105.536L111.148 104.095L73.8398 58.3697L75.9329 54.9137L81.2446 46.1461L82.7116 43.7295L128.873 72.2065L142.487 67.1053C142.736 68.6926 142.823 70.3016 142.746 71.9068C142.594 76.3256 142.911 84.6723 143.303 92.7831Z" fill="#403C70"/>
<path d="M141.013 55.4236C140.665 56.5905 139.641 57.7956 138.433 58.8732C137.845 58.2331 137.188 57.662 136.473 57.1707C138.062 56.8123 139.591 56.2239 141.013 55.4236Z" fill="#403C70"/>
<path d="M152.766 58.7202C149.575 61.4389 145.966 63.6142 142.08 65.1604C141.332 62.8189 140.082 60.6724 138.418 58.8733C139.626 57.7957 140.651 56.5905 140.998 55.4236C139.577 56.2239 138.047 56.8124 136.458 57.1708C135.826 57.3302 135.231 57.4705 134.612 57.5916C133.251 57.8828 131.861 58.0112 130.47 57.9742C120.612 57.3812 121.857 49.8188 114.611 47.1343C116.508 44.2267 116.552 41.5422 116.059 38.7685C115.616 36.2179 114.712 33.6291 114.352 30.7087C122.572 36.0203 130.4 34.6621 135.649 33.6355C135.908 51.6934 140.91 57.6426 152.766 58.7202Z" fill="#FD8033"/>
<path d="M191.581 90.5896L180.515 130.257L164.656 131.609L191.581 90.5896Z" fill="#403C70"/>
<path d="M88.181 107.277L79.442 120.782L58.6316 112.429L54.6289 101.869L75.7807 104.777L75.7618 95.8501L88.181 107.277Z" fill="#FD8033"/>
<path d="M81.2737 46.1524L75.9621 54.92L66.1228 58.2293L69.7019 52.2738L49.8906 54.7414L54.6269 45.0366L71.5863 41.147L81.2737 46.1524Z" fill="#FD8033"/>
<path d="M263.889 344H251.755L245.495 332.822L241.024 344H205.594L217.083 326.72L215.022 319.413L255.7 302.573L263.889 344Z" fill="#403C70"/>
<path d="M175.973 317.634V344H164.894L158.002 334.372L150.648 344H114.996L129.489 328.78V317.634H175.973Z" fill="#403C70"/>
<path d="M64.781 101.576C70.0859 101.576 74.3863 97.2396 74.3863 91.8903C74.3863 86.541 70.0859 82.2046 64.781 82.2046C59.4762 82.2046 55.1758 86.541 55.1758 91.8903C55.1758 97.2396 59.4762 101.576 64.781 101.576Z" fill="#FB3552"/>
<path d="M31.3967 79.8962L31.207 78.3149C40.1673 77.2373 51.0436 70.8354 53.5666 61.0986L55.0969 61.5003C52.3968 71.9194 40.8692 78.7549 31.3967 79.8962Z" fill="#FFBE4D"/>
<path d="M36.772 102.322L35.8867 100.996C41.8371 96.953 46.7946 88.8231 48.5336 80.2852L50.0828 80.604C48.2427 89.6648 43.146 97.986 36.772 102.322Z" fill="#FFBE4D"/>
<path d="M220.415 92.5314L211.652 91.354L210.485 100.19L219.247 101.368L220.415 92.5314Z" fill="#FFBE4D"/>
<path d="M246.611 192.307L234.344 201.284L243.247 213.654L255.514 204.676L246.611 192.307Z" fill="#FB3552"/>
<path d="M27.6592 199.299L12.4922 206.951L20.0806 222.245L35.2476 214.593L27.6592 199.299Z" fill="#FB3552"/>
<path d="M77.8897 307.052L70.6836 311.819L75.4118 319.086L82.6179 314.318L77.8897 307.052Z" fill="#FD8033"/>
<path d="M113.005 161.458L106.883 165.022L110.418 171.196L116.54 167.632L113.005 161.458Z" fill="#FD8033"/>
<path d="M71.0793 91.5779C66.1787 86.0049 63.1498 73.3287 63.5418 59.9382L65.1227 59.9892C64.7496 72.742 67.6836 85.2908 72.2618 90.5003L71.0793 91.5779Z" fill="#FFBE4D"/>
<path d="M91.2521 97.3675C84.7896 92.5406 79.187 84.5063 76.2656 75.879L77.7643 75.3625C80.5845 83.6965 85.9847 91.4438 92.1943 96.0858L91.2521 97.3675Z" fill="#FFBE4D"/>
<path d="M274.184 322.289L273.084 321.141C278.566 315.791 280.501 311.021 278.832 306.972C273.773 294.634 236.281 287.882 178.605 288.908V287.314C205.961 286.823 229.623 288.13 247.044 291.089C266.299 294.36 277.491 299.493 280.318 306.36C282.234 311.079 280.179 316.435 274.184 322.289Z" fill="#FFBE4D"/>
<path d="M143.704 250.554C132.917 250.554 117.778 249.279 98.6248 246.824C92.4721 246.027 86.4586 245.402 80.7422 244.968L80.8623 243.381C86.604 243.814 92.6492 244.439 98.8272 245.243C137.773 250.28 159.469 250.229 163.326 245.083L164.591 246.046C162.434 248.928 156.174 250.401 145.45 250.541L143.704 250.554Z" fill="#FFBE4D"/>
</g>
<defs>
<clipPath id="clip0">
<rect width="281" height="344" fill="white"/>
</clipPath>
</defs>
</svg>
