<svg xmlns="http://www.w3.org/2000/svg" viewBox="0 0 419.68 566.06"><defs><style>.cls-1{fill:#ffbe4d;}.cls-2{fill:#403c70;}.cls-3{fill:#fd8033;}.cls-4{fill:#fb3552;}</style></defs><title>SpotIllo_Operations</title><g id="Layer_2" data-name="Layer 2"><g id="Layer_3" data-name="Layer 3"><path class="cls-1" d="M360.77,157.79c-.58,0-1.13,0-1.64,0l.06-2.49a44.11,44.11,0,0,0,13.53-1.49c13.5-3.9,22-12.19,25.4-24.65,3.72-13.81.71-31.94-8.71-52.43-9.78-21.3-26.13-44.24-47.29-66.35l1.81-1.72c42.95,44.88,64.65,91.3,56.61,121.15-3.55,13.17-12.93,22.3-27.13,26.4A45.54,45.54,0,0,1,360.77,157.79Z"/><path class="cls-1" d="M305.74,313.23c-24.3-25.74-65.18-48.32-121.49-67.11a155.3,155.3,0,0,0-19.6-5.24l.48-2.45A156.67,156.67,0,0,1,185,243.74c56.71,18.93,97.93,41.73,122.52,67.77Z"/><polygon class="cls-2" points="326.55 566.06 219.13 566.06 219.13 522.49 302.61 522.49 302.61 544.27 326.55 566.06"/><polygon class="cls-2" points="160.54 526.09 143.19 566.06 44.66 523.29 75.29 512.83 83.97 492.85 160.54 526.09"/><polygon class="cls-3" points="219.13 507.66 219.13 367.43 171.38 513.11 82.55 474.07 175.5 234.14 296.59 210.84 306.65 507.66 219.13 507.66"/><polygon class="cls-4" points="296.59 210.84 175.5 234.14 164.89 173.25 171.94 164.03 235.64 190.38 282.39 171 296.59 210.84"/><path class="cls-3" d="M171.94,164l-7.05,9.22-52.08,68.08L88.67,183.12h0L75.46,151.27l69.8,9.23h.09l.52.07.79.1,11.09,1.47h0l5.32.71Z"/><polygon class="cls-2" points="112.81 241.33 37.35 272.62 15.91 220.93 21.4 219.37 21.67 199.61 11.13 192.81 5.55 195.95 0 182.57 56.76 159.03 56.77 159.02 56.79 159.01 75.46 151.27 88.67 183.11 88.67 183.12 112.81 241.33"/><polygon class="cls-2" points="419.68 114.06 386.55 127.8 363.05 71.14 359.16 61.76 352.86 46.54 349.21 37.75 382.33 24.01 388.15 38.05 382.51 38.86 380.04 51.16 394.41 64.73 398.06 61.93 419.68 114.06"/><path class="cls-1" d="M361.14,72.06A26,26,0,0,1,323.4,94.9l-.9-.47a27.18,27.18,0,0,1-3.34-2.21,26,26,0,1,1,42-20.16Z"/><path class="cls-2" d="M164.57,157.75c-.73.34-1.47.64-2.22.92a34.18,34.18,0,0,1-15.69,2l-.79-.1-.52-.07h-.09a34.36,34.36,0,1,1,19.31-2.75Z"/><polygon class="cls-3" points="21.67 199.61 21.4 219.37 15.91 220.93 10.04 222.6 0.21 198.96 5.55 195.95 11.13 192.81 21.67 199.61"/><polygon class="cls-3" points="404.61 56.91 398.06 61.93 394.41 64.73 380.04 51.16 382.51 38.86 388.15 38.05 393.4 37.29 404.61 56.91"/><path class="cls-4" d="M145.26,160.5l-69.8-9.23L56.79,159l59.37-36.44a34.36,34.36,0,0,0,29.1,37.93Z"/><path class="cls-4" d="M319.16,92.22l-.47.23L273.75,69,205.69,97.26l-2-6.49L200,78.51,315.87,54.28a26,26,0,0,0,3.29,37.94Z"/><path class="cls-4" d="M359.16,61.76A25.91,25.91,0,0,0,345.82,48l7-1.47Z"/><path class="cls-4" d="M363.05,71.14l-1.91.92a25.81,25.81,0,0,0-2-10.3Z"/><path class="cls-4" d="M205.69,97.26l-7.4,3.07L171.94,164l-8.86-1.17-5.32-.71h0l-11.09-1.47a34.18,34.18,0,0,0,15.69-2c.75-.28,1.49-.58,2.22-.92A34.34,34.34,0,0,0,162.2,94.3l12.26-7.52,1,9.8c10.6,4.6,21.2,3.52,28.28-5.81Z"/><path class="cls-3" d="M203.73,90.77c-7.08,9.33-17.68,10.41-28.28,5.81l-.72-7.11L174.58,88a14.37,14.37,0,0,0,1.68.81,14.62,14.62,0,0,0,2.27.72,22.26,22.26,0,0,0,9.94-.22c5.45-1.2,9.39-3.31,12.07-6.47h0q.3-.34.57-.72l.19.62Z"/><path class="cls-3" d="M199.68,77.32a15.47,15.47,0,0,1-1.13,1.5h0c-2.68,3.16-6.62,5.27-12.07,6.47a22.26,22.26,0,0,1-9.94.22,14.62,14.62,0,0,1-2.27-.72c-5.15-2.09-9.2-7.09-12.2-16-.27-.77-.53-1.57-.77-2.41a96.07,96.07,0,0,1-2.53-11.19c-.17-1-.32-1.94-.48-2.94,15.58-7.69,28.47-20.06,28.76-28,1.52,5.8,7.33,10.63,13,13.18q.94,4.65,1.64,8.81a108.44,108.44,0,0,1,1.52,13.77C203.5,67.48,202.46,73.16,199.68,77.32Z"/><path class="cls-2" d="M201.12,82.1q-.27.38-.57.72h0c-2.68,3.16-6.62,5.27-12.07,6.47a22.26,22.26,0,0,1-9.94.22,14.62,14.62,0,0,1-2.27-.72,14.37,14.37,0,0,1-1.68-.81l-.12-1.2-.2-2a14.62,14.62,0,0,0,2.27.72,22.26,22.26,0,0,0,9.94-.22c5.45-1.2,9.39-3.31,12.07-6.47h0a15.47,15.47,0,0,0,1.13-1.5l.36,1.19Z"/><path class="cls-2" d="M207.33,53.68c.1-3.59-2.19-7.17-5.62-7.38q-.69-4.15-1.64-8.81c-5.7-2.55-11.51-7.38-13-13.18-.29,7.93-13.18,20.3-28.76,28,.16,1,.31,2,.48,2.94-3.69,1.76-4.44,7.62-1.53,11.07-40.61-4.11-10.5-93.15,29.87-58.19C199.56-10.44,225.06,33,207.33,53.68Z"/><path class="cls-3" d="M207.33,53.68a7.11,7.11,0,0,1-4.1,6.39,108.44,108.44,0,0,0-1.52-13.77C205.14,46.51,207.43,50.09,207.33,53.68Z"/><path class="cls-3" d="M162.06,68.84a7.31,7.31,0,0,1-4.83-2.53c-2.91-3.45-2.16-9.31,1.53-11.07a96.07,96.07,0,0,0,2.53,11.19C161.53,67.27,161.79,68.07,162.06,68.84Z"/><polygon class="cls-2" points="219.13 367.43 219.13 268.13 180.04 486.69 219.13 367.43"/><rect class="cls-4" x="373.43" y="277.5" width="13.24" height="13.24" transform="translate(25.47 -31.21) rotate(4.87)"/><rect class="cls-1" x="336.27" y="424.84" width="17.18" height="17.18" transform="translate(-134.68 156.25) rotate(-21.46)"/><rect class="cls-3" x="352.87" y="175.34" width="17.33" height="17.33" transform="translate(114.12 -137.48) rotate(25.44)"/><rect class="cls-4" x="47.65" y="323.39" width="25.69" height="25.69" transform="translate(-175.07 88.8) rotate(-33.39)"/><rect class="cls-3" x="44.59" y="114.96" width="11.89" height="11.89" transform="translate(20.69 -6.69) rotate(9.52)"/><path class="cls-1" d="M130.62,253.79a10.94,10.94,0,0,1-5.22-1.15,5.07,5.07,0,0,1-2.57-6.45c2-5.47,13-11.79,35.7-8.83,8.09-6.72,17.53-16.47,28.17-30.42,13.4-17.57,19.37-53.45,24.65-85.1,5.77-34.6,10.75-64.49,23.94-68.32,6.58-1.91,13.63,1.77,22.86,11.94l-1.85,1.68C247.9,57.9,241.46,54.33,236,55.92c-11.68,3.39-16.78,34-22.17,66.33-5.33,31.94-11.36,68.14-25.14,86.21-9.11,11.95-18.21,21.88-26.88,29.38,1.09.17,2.19.37,3.33.59l-.48,2.45q-2.81-.54-5.39-.91a89.22,89.22,0,0,1-11.16,7.89C141.47,251.74,135.33,253.79,130.62,253.79Zm16.8-14.73c-15.4,0-21.32,5.43-22.23,8a2.61,2.61,0,0,0,1.41,3.41c3.19,1.73,13.37,1.42,29.22-10.9A78.73,78.73,0,0,0,147.42,239.06Z"/><path class="cls-1" d="M241.31,469.43l-.74-2.39c43.9-13.71,79.38-45.81,88.28-79.88,6.62-25.35-1.37-50.91-23.11-73.93l1.82-1.72c22.36,23.68,30.56,50.06,23.71,76.28C322.15,422.66,286,455.47,241.31,469.43Z"/><polygon class="cls-1" points="235.64 190.38 171.94 164.03 198.29 100.33 235.64 190.38"/><polygon class="cls-3" points="311.1 159.09 282.39 171 235.64 190.38 198.29 100.33 205.69 97.26 273.75 69.04 289.31 106.56 311.1 159.09"/><path class="cls-2" d="M386.55,127.8,311.1,159.09l-21.79-52.53L273.75,69l44.94,23.41,3.81,2,.9.47Z"/><path class="cls-1" d="M359.13,157.77c-35.79-.74-62.46-37.11-83.89-66.33-6.73-9.18-13.09-17.85-18.94-24.3l1.85-1.68C264.09,72,270.49,80.73,277.26,90c21.1,28.78,47.37,64.6,81.93,65.32Z"/></g></g></svg>