<svg width="221" height="357" viewBox="0 0 221 357" fill="none" xmlns="http://www.w3.org/2000/svg">
<path d="M183.87 170.786C165.537 158.659 140.488 150.857 111.514 148.215C84.7421 145.769 63.5901 140.478 48.6562 132.485L49.4319 131.039C64.1685 138.927 85.1102 144.152 111.665 146.578C140.935 149.247 166.221 157.141 184.777 169.413L183.87 170.786Z" fill="#FFBE4D"/>
<path d="M168.868 122.646L164.503 127.069L158.016 96.7349L165.785 109.118L167.205 111.386L168.868 122.646Z" fill="#403C70"/>
<path d="M141.592 269.763L138.477 292.781" stroke="#00D3E2" stroke-miterlimit="10"/>
<path d="M138.475 292.781L134.926 319.008L119.742 316.464L127.643 195.836L138.475 292.781Z" fill="#403C70"/>
<path d="M197.583 317.2H141.2L138.472 292.781L127.64 195.836L119.739 316.464L77.9219 309.451L109.255 158.554H119.68L123.539 159.75L133.904 167.066L172.994 150.614L173.27 152.461L175.064 164.634L190.123 266.641L197.583 317.2Z" fill="#FD8033"/>
<path d="M107.219 98.0168H76.681L70.0488 114.502L66.0195 115.383L77.1936 56.035L69.8122 47.5427L70.0685 34.6399L80.513 46.2018L83.5892 40.1678L88.072 53.8988L91.1744 83.5234C93.1463 81.3543 95.1182 79.3101 97.0573 77.3907L107.219 98.0168Z" fill="#FD8033"/>
<path d="M197.309 323.662L196.744 356.75H183.079L179.674 342.263L173.758 356.75H141.445L151.982 339.121L149.261 323.662H197.309Z" fill="#403C70"/>
<path d="M127.986 324.286L121.544 356.75L108.096 354.318L107.327 339.456L98.9264 352.662L67.1328 346.917L80.6338 331.444L80.6995 315.748L127.986 324.286Z" fill="#403C70"/>
<path d="M126.04 98.0168H116.141" stroke="#00D3E2" stroke-miterlimit="10"/>
<path d="M132.816 124.23H66.1328L70.0503 114.502L76.6825 98.0168H116.14L119.716 103.637L132.816 124.23Z" fill="#403C70"/>
<path d="M145.259 124.23H132.816" stroke="#00D3E2" stroke-miterlimit="10"/>
<path d="M146.91 129.442H136.137" stroke="#00D3E2" stroke-miterlimit="10"/>
<path d="M36.5413 47.7338L30.0156 45.72L28.0018 52.2457L34.5275 54.2595L36.5413 47.7338Z" fill="#FD8033"/>
<path d="M217.093 160.362L206.668 164.044L210.349 174.469L220.774 170.787L217.093 160.362Z" fill="#FB3552"/>
<path d="M9.84069 128.178L0 130.55L2.37162 140.391L12.2123 138.019L9.84069 128.178Z" fill="#FB3552"/>
<path d="M48.7549 228.653L29.6094 227.045L28.0017 246.191L47.1472 247.798L48.7549 228.653Z" fill="#FFBE4D"/>
<path d="M146.341 145.494L143.435 148.445L140.017 151.915L137.947 154.012L127.923 153.532L132.044 157.713L132.873 158.554H52.3203L60.9638 137.067L64.0334 129.442H136.133L146.341 145.494Z" fill="#FFBE4D"/>
<path d="M199.306 127.273L171.805 142.549L169.392 143.864L168.236 144.521L161.183 148.465L153.952 152.481L151.599 153.795L150.094 154.624L142.975 158.567L133.826 162.958L123.565 159.724L119.707 158.528H132.899L132.071 157.687L127.95 153.506L137.973 153.986L140.044 151.889L143.462 148.419L146.367 145.467L164.528 127.063L168.893 122.639L172.179 119.287L167.217 111.367L165.784 109.112L166.776 108.507L190.216 94.3228C194.199 103.735 197.183 114.745 199.306 127.273Z" fill="#FD8033"/>
<path d="M190.218 94.3293L166.779 108.514L165.786 109.119L158.017 96.735L164.504 127.069L146.343 145.474L136.135 129.423H111.684L111.94 124.21H132.816L119.716 103.617L116.14 97.997H107.221L97.0391 77.3578C107.556 66.9856 118.014 60.1759 136.339 57.3232C136.067 58.6477 135.684 59.9471 135.195 61.2079C139.205 66.6635 149.084 67.3799 155.315 60.5506C155.098 59.9787 154.842 59.236 154.559 58.4275C155.217 58.6444 155.874 58.8745 156.485 59.0848C171.998 64.9808 182.85 76.9042 190.218 94.3293Z" fill="#FB3552"/>
<path d="M142.845 53.1955C140.947 54.2538 138.858 54.9241 136.699 55.1672C136.791 54.3851 136.857 53.5504 136.877 52.6763C138.844 53.0486 140.843 53.2226 142.845 53.1955Z" fill="#403C70"/>
<path d="M154.56 58.4602C154.842 59.295 155.099 60.0115 155.316 60.5833C149.084 67.3995 139.205 66.6831 135.196 61.2406C135.684 59.9799 136.067 58.6805 136.339 57.356C136.484 56.6987 136.609 55.9493 136.701 55.1737C138.86 54.9305 140.949 54.2602 142.847 53.2018C140.844 53.2267 138.845 53.0506 136.878 52.676C126.9 50.6121 128.991 43.0728 124.508 39.8258C126.118 38.9318 129.109 35.3693 130.594 30.9456C130.975 29.8176 131.233 28.6518 131.363 27.4685C132.667 29.4702 134.375 31.1764 136.379 32.4771C142.255 36.4604 149.794 37.7355 149.794 37.7355C155.9 32.2931 157.084 38.3928 154.744 42.4418C154.094 43.6284 153.057 44.5564 151.806 45.071C152.014 47.6233 152.401 50.1578 152.962 52.6563C153.468 54.9437 154.047 56.909 154.56 58.4602Z" fill="#FD8033"/>
<path d="M179.787 47.3258C179.789 49.9905 178.896 52.5787 177.251 54.6755C175.607 56.7724 173.306 58.2564 170.718 58.8899C168.129 59.5233 165.403 59.2695 162.976 58.169C160.55 57.0686 158.562 55.1852 157.333 52.8208C156.637 53.1064 155.889 53.2446 155.137 53.2265C154.385 53.2084 153.644 53.0344 152.962 52.7156C152.408 50.2058 152.03 47.6602 151.832 45.0975C153.083 44.5829 154.12 43.6549 154.77 42.4683C157.11 38.4456 155.927 32.3196 149.82 37.762C149.82 37.762 142.281 36.4869 136.405 32.5036C134.402 31.2029 132.693 29.4967 131.39 27.495C131.259 28.6783 131.001 29.8441 130.621 30.9721C127.968 29.4777 125.988 27.0258 125.084 24.1185C124.181 21.2113 124.423 18.0686 125.761 15.3342C127.1 12.5997 129.433 10.4803 132.283 9.40996C135.133 8.33964 138.284 8.39939 141.092 9.57698C155.184 -4.02914 183.369 10.3657 171.985 36.1451C174.274 36.9853 176.25 38.5081 177.645 40.5078C179.04 42.5074 179.788 44.8874 179.787 47.3258Z" fill="#403C70"/>
<path d="M173.274 152.461L133.909 167.066L123.543 159.75L133.836 162.945L142.986 158.554L150.104 154.597L151.61 153.769L153.963 152.461L161.187 148.445L168.239 144.527L169.396 143.883L171.809 142.549L172.61 147.991L172.676 148.445L172.998 150.614L173.274 152.461Z" fill="#403C70"/>
<path d="M163.53 286.07L162.734 284.611C194.942 266.93 213.241 244.338 214.201 221.011C214.983 202.061 204.21 184.202 183.867 170.767L184.774 169.393C205.617 183.196 216.653 201.528 215.844 221.077C214.858 245.029 196.276 268.1 163.53 286.07Z" fill="#FFBE4D"/>
<path d="M48.6351 132.486C32.5509 123.875 24.3544 112.28 25.5573 99.8242C26.8719 86.4679 38.8545 74.3998 56.148 69.0691C79.8109 61.7862 94.4424 50.7041 95.356 39.4249C96.0133 30.88 88.6253 22.4994 73.8952 15.2099L74.6248 13.7375C85.3716 19.0617 97.9327 27.8301 97.0124 39.5563C96.0462 51.5323 80.9611 63.1534 56.6476 70.6401C39.9916 75.7736 28.4362 87.2895 27.2137 99.982C26.0765 111.735 33.9707 122.764 49.4304 131.039L48.6351 132.486Z" fill="#FFBE4D"/>
<path d="M87.5216 32.4707L52.0273 23.7811L77.8921 0L87.5216 32.4707Z" fill="#FB3552"/>
</svg>
